<svg width="145" height="43" viewBox="0 0 145 43" fill="none" xmlns="http://www.w3.org/2000/svg">
<path d="M139.325 0.530151H6.3794C3.68606 0.530151 1.50269 2.71353 1.50269 5.40687V36.9003C1.50269 39.5937 3.68606 41.7771 6.3794 41.7771H139.325C142.019 41.7771 144.202 39.5937 144.202 36.9003V5.40687C144.202 2.71353 142.019 0.530151 139.325 0.530151Z" fill="black"/>
<path d="M139.325 42.3145H6.37937C3.39452 42.3145 0.968872 39.8888 0.968872 36.904V5.4105C0.968872 2.42565 3.39452 0 6.37937 0H139.322C142.306 0 144.732 2.42565 144.732 5.4105V36.904C144.732 39.8888 142.306 42.3145 139.322 42.3145H139.325ZM6.37937 1.06394C3.98278 1.06394 2.03645 3.0139 2.03645 5.40687V36.9003C2.03645 39.2969 3.98641 41.2433 6.37937 41.2433H139.322C141.718 41.2433 143.665 39.2933 143.665 36.9003V5.4105C143.665 3.0139 141.715 1.06758 139.322 1.06758H6.37937V1.06394Z" fill="#A6A8AB"/>
<path d="M48.8318 12.0302L48.2327 13.9983H46.9218L49.1477 7.04819H50.7673L53.0259 13.9983H51.6642L51.036 12.0302H48.8282H48.8318ZM50.8217 11.0716L50.2734 9.36127C50.1391 8.94005 50.0265 8.46436 49.9212 8.06129H49.8994C49.7977 8.46436 49.6924 8.94731 49.569 9.36127L49.0315 11.0716H50.8145H50.8217Z" fill="white"/>
<path d="M54.925 8.97998L55.7384 11.5291C55.8837 11.9721 55.9853 12.3752 56.0798 12.7855H56.1124C56.2068 12.3715 56.3194 11.9794 56.4538 11.5291L57.2563 8.97998H58.5853L56.668 14.0019H55.4189L53.5524 8.97998H54.925Z" fill="white"/>
<path d="M63.6472 12.7964C63.6472 13.2503 63.669 13.6933 63.7307 14.002H62.5869L62.4961 13.4464H62.4635C62.1657 13.8386 61.6392 14.1182 60.9783 14.1182C59.9688 14.1182 59.4023 13.3847 59.4023 12.6221C59.4023 11.3657 60.528 10.7157 62.3836 10.723V10.6395C62.3836 10.309 62.2492 9.76434 61.3632 9.76434C60.8694 9.76434 60.3537 9.92048 60.0124 10.1347L59.7655 9.31044C60.1358 9.0853 60.7858 8.86743 61.5811 8.86743C63.1897 8.86743 63.6545 9.8878 63.6545 10.9917V12.7964H63.6472ZM62.409 11.5473C61.5121 11.5364 60.6551 11.7216 60.6551 12.4877C60.6551 12.9816 60.9747 13.2104 61.3777 13.2104C61.8934 13.2104 62.2528 12.8799 62.3763 12.5204C62.409 12.4296 62.409 12.3352 62.409 12.2408V11.5509V11.5473Z" fill="white"/>
<path d="M66.0692 8.25736C65.648 8.25736 65.3684 7.94871 65.3684 7.57833C65.3684 7.18616 65.6589 6.8884 66.0801 6.8884C66.5013 6.8884 66.7809 7.18616 66.7918 7.57833C66.7918 7.94871 66.5122 8.25736 66.0801 8.25736H66.0692ZM65.441 14.0019V8.97997H66.7083V14.0019H65.441Z" fill="white"/>
<path d="M68.5349 6.67053H69.8021V14.0019H68.5349V6.67053Z" fill="white"/>
<path d="M75.5357 12.7964C75.5357 13.2503 75.5575 13.6933 75.6193 14.002H74.4754L74.381 13.4464H74.3483C74.0506 13.8386 73.5241 14.1182 72.8632 14.1182C71.8537 14.1182 71.2872 13.3847 71.2872 12.6221C71.2872 11.3657 72.4129 10.7157 74.2685 10.723V10.6395C74.2685 10.309 74.1341 9.76434 73.2481 9.76434C72.7542 9.76434 72.2386 9.92048 71.8973 10.1347L71.6504 9.31044C72.0207 9.0853 72.6707 8.86743 73.466 8.86743C75.0746 8.86743 75.5394 9.8878 75.5394 10.9917V12.7964H75.5357ZM74.2975 11.5473C73.4006 11.5364 72.5436 11.7216 72.5436 12.4877C72.5436 12.9816 72.8632 13.2104 73.2662 13.2104C73.7819 13.2104 74.1414 12.8799 74.2648 12.5204C74.2975 12.4296 74.2975 12.3352 74.2975 12.2408V11.5509V11.5473Z" fill="white"/>
<path d="M77.3259 6.67053H78.5932V9.66991H78.615C78.9237 9.18696 79.472 8.86741 80.2236 8.86741C81.451 8.86741 82.3261 9.88778 82.3152 11.4129C82.3152 13.2176 81.1714 14.1145 80.0348 14.1145C79.3848 14.1145 78.8075 13.8676 78.448 13.2467H78.4262L78.3644 13.9983H77.2823C77.3041 13.657 77.3223 13.1014 77.3223 12.5967V6.6669L77.3259 6.67053ZM78.5968 11.9285C78.5968 12.0302 78.6077 12.1355 78.6295 12.2263C78.7639 12.7419 79.2069 13.1123 79.7516 13.1123C80.5468 13.1123 81.0298 12.4841 81.0298 11.4637C81.0298 10.5777 80.6085 9.8551 79.7625 9.8551C79.2468 9.8551 78.7711 10.2255 78.6368 10.7847C78.615 10.8755 78.5968 10.9917 78.5968 11.1151V11.9285Z" fill="white"/>
<path d="M83.8113 6.67053H85.0786V14.0019H83.8113V6.67053Z" fill="white"/>
<path d="M87.8129 11.845C87.8456 12.7528 88.5537 13.145 89.3598 13.145C89.9481 13.145 90.362 13.0506 90.7506 12.9162L90.9358 13.7841C90.5036 13.9692 89.9045 14.1036 89.1819 14.1036C87.5515 14.1036 86.5928 13.105 86.5928 11.5654C86.5928 10.1746 87.4389 8.86377 89.0475 8.86377C90.6562 8.86377 91.2117 10.2037 91.2117 11.3076C91.2117 11.5436 91.1899 11.7288 91.1718 11.845H87.8093H87.8129ZM90.0207 10.959C90.0316 10.4942 89.8246 9.73163 88.9785 9.73163C88.1942 9.73163 87.8638 10.4433 87.8129 10.959H90.0207Z" fill="white"/>
<path d="M97.4719 14.1145C96.0594 14.1145 94.9555 13.145 94.9555 11.5254C94.9555 9.90593 96.0376 8.86377 97.5555 8.86377C99.0733 8.86377 100.05 9.91682 100.05 11.4419C100.05 13.2866 98.7501 14.1145 97.4828 14.1145H97.4719ZM97.5155 13.1958C98.2381 13.1958 98.7429 12.495 98.7429 11.4746C98.7429 10.6903 98.3906 9.78247 97.5264 9.78247C96.6622 9.78247 96.2664 10.6576 96.2664 11.4928C96.2664 12.4623 96.753 13.1958 97.5046 13.1958H97.5155Z" fill="white"/>
<path d="M101.546 10.476C101.546 9.89866 101.524 9.41208 101.506 8.97997H102.61L102.672 9.73163H102.705C102.933 9.33946 103.478 8.86377 104.313 8.86377C105.148 8.86377 106.096 9.43024 106.096 11.0207V14.0019H104.829V11.166C104.829 10.4433 104.56 9.89866 103.87 9.89866C103.365 9.89866 103.013 10.2582 102.879 10.6394C102.839 10.7411 102.817 10.8972 102.817 11.0425V14.0019H101.55V10.476H101.546Z" fill="white"/>
<path d="M111.935 7.69089V8.97997H113.141V9.92771H111.935V12.1355C111.935 12.7528 112.098 13.0651 112.585 13.0651C112.81 13.0651 112.934 13.0542 113.079 13.0142L113.101 13.9729C112.915 14.0455 112.574 14.1072 112.182 14.1072C111.706 14.1072 111.325 13.9511 111.089 13.6933C110.809 13.4028 110.686 12.9416 110.686 12.2807V9.93134H109.974V8.9836H110.686V8.04675L111.935 7.69452V7.69089Z" fill="white"/>
<path d="M114.557 6.67053H115.824V9.66265H115.846C116.002 9.42662 116.216 9.23053 116.474 9.09618C116.732 8.95093 117.03 8.87104 117.349 8.87104C118.206 8.87104 119.103 9.43751 119.103 11.0461V14.0056H117.836V11.1805C117.836 10.4579 117.567 9.90231 116.866 9.90231C116.372 9.90231 116.02 10.2327 115.875 10.614C115.835 10.7266 115.824 10.8609 115.824 10.9953V14.0056H114.557V6.67416V6.67053Z" fill="white"/>
<path d="M121.805 11.845C121.837 12.7528 122.545 13.145 123.352 13.145C123.94 13.145 124.354 13.0506 124.742 12.9162L124.927 13.7841C124.495 13.9692 123.896 14.1036 123.174 14.1036C121.543 14.1036 120.585 13.105 120.585 11.5654C120.585 10.1746 121.431 8.86377 123.039 8.86377C124.648 8.86377 125.203 10.2037 125.203 11.3076C125.203 11.5436 125.182 11.7288 125.163 11.845H121.801H121.805ZM124.009 10.959C124.02 10.4942 123.813 9.73163 122.967 9.73163C122.182 9.73163 121.852 10.4433 121.801 10.959H124.009Z" fill="white"/>
<path d="M33.0543 20.7415C33.0216 17.3027 35.8721 15.6287 36.0028 15.5488C34.3906 13.1958 31.8887 12.8763 31.0099 12.8508C28.9111 12.6293 26.874 14.1072 25.8064 14.1072C24.7388 14.1072 23.0648 12.8726 21.2928 12.9089C19.0088 12.9453 16.87 14.267 15.7007 16.3223C13.2824 20.5091 15.0871 26.664 17.4038 30.0482C18.5621 31.7041 19.9166 33.556 21.6922 33.4906C23.428 33.418 24.0743 32.3867 26.1659 32.3867C28.2575 32.3867 28.8494 33.4906 30.6577 33.4507C32.5205 33.4216 33.6898 31.784 34.8082 30.1136C36.1481 28.2145 36.6855 26.3444 36.7073 26.2464C36.6637 26.2318 33.0906 24.8701 33.0579 20.7451" fill="white"/>
<path d="M29.6373 10.6249C30.5705 9.45932 31.2096 7.86885 31.0317 6.26022C29.6809 6.31832 27.996 7.19344 27.0228 8.33364C26.1622 9.33949 25.3924 10.9881 25.5921 12.5386C27.11 12.6512 28.6678 11.7724 29.6409 10.6249" fill="white"/>
<path d="M58.1205 33.2183H55.7058L54.3804 29.0569H49.7796L48.516 33.2183H46.163L50.7238 19.0566H53.5379L58.1169 33.2183H58.1205ZM53.9846 27.3103L52.7899 23.6137C52.6628 23.2361 52.4232 22.3465 52.0746 20.9484H52.031C51.8894 21.5512 51.6642 22.4409 51.3592 23.6137L50.1827 27.3103H53.9882H53.9846Z" fill="white"/>
<path d="M69.8457 27.9857C69.8457 29.7215 69.3773 31.0941 68.4368 32.1035C67.598 33.0005 66.5522 33.4471 65.3067 33.4471C63.9595 33.4471 62.9936 32.9641 62.4054 31.9982H62.3654V37.3761H60.0959V26.3662C60.0959 25.2732 60.0669 24.1548 60.0124 23.0037H62.0059L62.133 24.6232H62.1766C62.9319 23.4032 64.083 22.7931 65.6226 22.7931C66.8245 22.7931 67.834 23.2688 68.6365 24.2238C69.4426 25.1788 69.8457 26.4316 69.8457 27.9857ZM67.5363 28.0693C67.5363 27.0743 67.3111 26.2573 66.8645 25.6109C66.3743 24.9392 65.7134 24.6015 64.8891 24.6015C64.3263 24.6015 63.8179 24.7903 63.364 25.157C62.9101 25.5311 62.6087 26.0176 62.4707 26.6204C62.4017 26.9 62.3654 27.1324 62.3654 27.3103V29.0134C62.3654 29.7578 62.5905 30.3823 63.0444 30.8943C63.502 31.4063 64.0939 31.6605 64.8201 31.6605C65.6734 31.6605 66.3416 31.3337 66.8136 30.6728C67.293 30.012 67.529 29.1441 67.529 28.0656" fill="white"/>
<path d="M81.5927 27.9857C81.5927 29.7215 81.1243 31.0941 80.1838 32.1035C79.345 33.0005 78.3028 33.4471 77.0537 33.4471C75.7101 33.4471 74.7442 32.9641 74.156 31.9982H74.116V37.3761H71.8465V26.3662C71.8465 25.2732 71.8175 24.1548 71.763 23.0037H73.7565L73.8836 24.6232H73.9272C74.6789 23.4032 75.83 22.7931 77.3732 22.7931C78.5751 22.7931 79.581 23.2688 80.3871 24.2238C81.1933 25.1788 81.5927 26.4316 81.5927 27.9857ZM79.2832 28.0693C79.2832 27.0743 79.0581 26.2573 78.6078 25.6109C78.1176 24.9392 77.4604 24.6015 76.6324 24.6015C76.0696 24.6015 75.5612 24.7903 75.1073 25.157C74.6534 25.5311 74.3557 26.0176 74.2141 26.6204C74.1414 26.9 74.1088 27.1324 74.1088 27.3103V29.0134C74.1088 29.7578 74.3339 30.3823 74.7914 30.8943C75.2453 31.4063 75.8372 31.6605 76.5671 31.6605C77.4204 31.6605 78.0886 31.3337 78.5606 30.6728C79.0363 30.012 79.276 29.1441 79.276 28.0656" fill="white"/>
<path d="M94.7231 29.2458C94.7231 30.4513 94.3055 31.4317 93.463 32.187C92.5407 33.015 91.2553 33.4253 89.6067 33.4253C88.0816 33.4253 86.8615 33.1312 85.9355 32.5429L86.4621 30.651C87.4607 31.2538 88.55 31.5552 89.7447 31.5552C90.598 31.5552 91.2662 31.3628 91.7418 30.9778C92.2175 30.5929 92.4536 30.0737 92.4536 29.431C92.4536 28.8572 92.2575 28.3706 91.8653 27.9785C91.4731 27.5863 90.8195 27.2195 89.9081 26.8818C87.428 25.9559 86.1897 24.6014 86.1897 22.8185C86.1897 21.6529 86.6218 20.6979 87.4933 19.9571C88.3612 19.2127 89.5159 18.8387 90.9611 18.8387C92.2502 18.8387 93.3214 19.0638 94.1748 19.5105L93.6083 21.3588C92.8094 20.9267 91.9053 20.7088 90.8958 20.7088C90.0969 20.7088 89.476 20.9049 89.0257 21.297C88.6481 21.6456 88.4592 22.0741 88.4592 22.5789C88.4592 23.1381 88.6735 23.6029 89.1092 23.966C89.4869 24.3037 90.1732 24.6668 91.1681 25.059C92.3882 25.5492 93.2815 26.1229 93.8588 26.7802C94.4326 27.441 94.7194 28.2581 94.7194 29.2385" fill="white"/>
<path d="M102.225 24.7067H99.7233V29.667C99.7233 30.927 100.163 31.5588 101.049 31.5588C101.452 31.5588 101.789 31.5225 102.055 31.4535L102.116 33.1747C101.67 33.3418 101.081 33.4253 100.351 33.4253C99.4546 33.4253 98.7537 33.1529 98.249 32.6082C97.7443 32.0599 97.4937 31.1412 97.4937 29.8558V24.7067H96.0013V23.0037H97.4937V21.1336L99.7196 20.4619V23.0037H102.222V24.7067H102.225Z" fill="white"/>
<path d="M113.511 28.0257C113.511 29.5944 113.064 30.8835 112.167 31.8929C111.227 32.9315 109.981 33.4471 108.427 33.4471C106.873 33.4471 105.733 32.9496 104.843 31.9547C103.954 30.9597 103.511 29.7069 103.511 28.1964C103.511 26.6132 103.968 25.3168 104.887 24.3073C105.802 23.2979 107.04 22.7931 108.594 22.7931C110.148 22.7931 111.3 23.2906 112.207 24.2855C113.079 25.2551 113.511 26.497 113.511 28.0257ZM111.154 28.1019C111.154 27.1615 110.951 26.3553 110.544 25.6799C110.069 24.8665 109.39 24.4562 108.507 24.4562C107.625 24.4562 106.902 24.8629 106.426 25.6799C106.02 26.3553 105.82 27.176 105.82 28.1455C105.82 29.1151 106.02 29.8921 106.426 30.5675C106.917 31.3809 107.603 31.7876 108.489 31.7876C109.375 31.7876 110.036 31.3737 110.522 30.5458C110.944 29.8558 111.154 29.0424 111.154 28.1019Z" fill="white"/>
<path d="M120.886 25.0009C120.661 24.9609 120.425 24.9391 120.174 24.9391C119.379 24.9391 118.758 25.2405 118.322 25.8433C117.945 26.3771 117.756 27.0489 117.756 27.8586V33.2183H115.486L115.505 26.221C115.505 25.0444 115.475 23.9732 115.421 23.0037H117.396L117.48 24.9573H117.542C117.781 24.2855 118.159 23.7445 118.678 23.3378C119.183 22.9747 119.731 22.7895 120.32 22.7895C120.527 22.7895 120.719 22.804 120.886 22.8294V24.9936V25.0009Z" fill="white"/>
<path d="M131.032 27.6262C131.032 28.0329 131.003 28.3743 130.948 28.6575H124.143C124.169 29.667 124.499 30.4368 125.131 30.9706C125.705 31.4463 126.449 31.6823 127.36 31.6823C128.366 31.6823 129.285 31.5225 130.113 31.1993L130.469 32.7753C129.503 33.1965 128.363 33.4071 127.045 33.4071C125.465 33.4071 124.219 32.9387 123.315 32.0091C122.415 31.0795 121.961 29.8267 121.961 28.2581C121.961 26.6894 122.382 25.4366 123.224 24.4126C124.103 23.3196 125.298 22.7749 126.794 22.7749C128.29 22.7749 129.379 23.3196 130.138 24.4126C130.737 25.2805 131.039 26.3517 131.039 27.6299M128.867 27.038C128.882 26.3662 128.737 25.7852 128.428 25.295C128.036 24.6632 127.429 24.3472 126.62 24.3472C125.879 24.3472 125.276 24.6559 124.815 25.2732C124.437 25.7634 124.212 26.3517 124.143 27.038H128.867Z" fill="white"/>
</svg>
