<svg width="18" height="19" viewBox="0 0 18 19" fill="none" xmlns="http://www.w3.org/2000/svg">
<path d="M13.33 0H8.89C6.68 0 4.89 1.8 4.89 4V5.82H4C1.79 5.82 0 7.62 0 9.82V14.26C0 16.47 1.8 18.26 4 18.26H8.44C10.65 18.26 12.44 16.46 12.44 14.26V12.44H13.33C15.54 12.44 17.33 10.64 17.33 8.44V4C17.33 1.79 15.53 0 13.33 0ZM10.44 14.26C10.44 15.36 9.54 16.26 8.44 16.26H4C2.9 16.26 2 15.36 2 14.26V9.82C2 8.72 2.9 7.82 4 7.82H4.89V8.45C4.89 10.66 6.69 12.45 8.89 12.45H10.44V14.27V14.26ZM15.33 8.44C15.33 9.54 14.43 10.44 13.33 10.44H8.89C7.79 10.44 6.89 9.54 6.89 8.44V4C6.89 2.9 7.79 2 8.89 2H13.33C14.43 2 15.33 2.9 15.33 4V8.44Z" fill="white"/>
</svg>
