<svg width="144" height="43" viewBox="0 0 144 43" fill="none" xmlns="http://www.w3.org/2000/svg">
<path d="M138.356 0.533783H5.41047C2.71713 0.533783 0.533752 2.71716 0.533752 5.4105V36.904C0.533752 39.5973 2.71713 41.7807 5.41047 41.7807H138.356C141.05 41.7807 143.233 39.5973 143.233 36.904V5.4105C143.233 2.71716 141.05 0.533783 138.356 0.533783Z" fill="black"/>
<path d="M138.356 42.3145H5.4105C2.42565 42.3145 0 39.8888 0 36.904V5.4105C0 2.42565 2.42565 0 5.4105 0H138.353C141.338 0 143.763 2.42565 143.763 5.4105V36.904C143.763 39.8888 141.338 42.3145 138.353 42.3145H138.356ZM5.4105 1.06758C3.0139 1.06758 1.06758 3.01753 1.06758 5.4105V36.904C1.06758 39.3006 3.01753 41.2469 5.4105 41.2469H138.353C140.749 41.2469 142.696 39.2969 142.696 36.904V5.4105C142.696 3.0139 140.746 1.06758 138.353 1.06758H5.4105Z" fill="#A6A8AB"/>
<path d="M72.5225 23.1417C70.0242 23.1417 67.9871 25.0408 67.9871 27.6625C67.9871 30.2843 70.0242 32.1834 72.5225 32.1834C75.0208 32.1834 77.0579 30.2661 77.0579 27.6625C77.0579 25.059 75.0208 23.1417 72.5225 23.1417ZM72.5225 30.3968C71.1535 30.3968 69.9734 29.2675 69.9734 27.6589C69.9734 26.0503 71.1535 24.921 72.5225 24.921C73.8914 24.921 75.0716 26.0321 75.0716 27.6589C75.0716 29.2857 73.8914 30.3968 72.5225 30.3968ZM62.6274 23.1417C60.1292 23.1417 58.0921 25.0408 58.0921 27.6625C58.0921 30.2843 60.1292 32.1834 62.6274 32.1834C65.1257 32.1834 67.1628 30.2661 67.1628 27.6625C67.1628 25.059 65.1257 23.1417 62.6274 23.1417ZM62.6274 30.3968C61.2585 30.3968 60.0783 29.2675 60.0783 27.6589C60.0783 26.0503 61.2585 24.921 62.6274 24.921C63.9964 24.921 65.1765 26.0321 65.1765 27.6589C65.1765 29.2857 63.9964 30.3968 62.6274 30.3968ZM50.8551 24.5288V26.4461H55.4413C55.3033 27.5246 54.9438 28.3125 54.3955 28.8608C53.7273 29.529 52.6852 30.2661 50.8514 30.2661C48.0263 30.2661 45.8186 27.9894 45.8186 25.1643C45.8186 22.3392 48.0263 20.0624 50.8514 20.0624C52.3765 20.0624 53.4877 20.6616 54.3083 21.4314L55.6591 20.0806C54.5117 18.984 52.9902 18.1451 50.8478 18.1451C46.9806 18.1451 43.727 21.2934 43.727 25.1643C43.727 29.0351 46.9806 32.1834 50.8478 32.1834C52.9357 32.1834 54.5117 31.4971 55.7427 30.2153C57.01 28.948 57.4021 27.1687 57.4021 25.7307C57.4021 25.2841 57.3694 24.8738 57.3005 24.5324H50.8478L50.8551 24.5288ZM98.9976 26.0176C98.62 25.0081 97.4725 23.1417 95.1304 23.1417C92.7883 23.1417 90.8673 24.9718 90.8673 27.6625C90.8673 30.1971 92.7846 32.1834 95.3519 32.1834C97.4217 32.1834 98.62 30.9161 99.1175 30.179L97.5778 29.1513C97.0658 29.903 96.3614 30.4005 95.3519 30.4005C94.3424 30.4005 93.6234 29.9393 93.1623 29.0315L99.2046 26.5332L98.9976 26.0212V26.0176ZM92.8355 27.5246C92.7846 25.7779 94.1863 24.8883 95.1994 24.8883C95.9874 24.8883 96.6555 25.2805 96.877 25.8469L92.8355 27.5246ZM87.9224 31.9038H89.9087V18.6208H87.9224V31.9038ZM84.6689 24.1512H84.5999C84.1532 23.621 83.2999 23.1417 82.2214 23.1417C79.9628 23.1417 77.8894 25.128 77.8894 27.6771C77.8894 30.2262 79.9592 32.1798 82.2214 32.1798C83.2999 32.1798 84.1569 31.7004 84.5999 31.1521H84.6689V31.8021C84.6689 33.5306 83.7429 34.4565 82.2541 34.4565C81.0377 34.4565 80.286 33.585 79.9774 32.8479L78.2489 33.5669C78.7464 34.7652 80.0645 36.2358 82.2541 36.2358C84.5817 36.2358 86.5498 34.8669 86.5498 31.5298V23.414H84.6652V24.1512H84.6689ZM82.3921 30.3968C81.0231 30.3968 79.8757 29.2494 79.8757 27.6734C79.8757 26.0975 81.0231 24.9173 82.3921 24.9173C83.7611 24.9173 84.8069 26.083 84.8069 27.6734C84.8069 29.2639 83.7465 30.3968 82.3921 30.3968ZM108.301 18.6208H103.551V31.9038H105.534V26.8709H108.301C110.498 26.8709 112.658 25.2805 112.658 22.7459C112.658 20.2113 110.498 18.6208 108.301 18.6208ZM108.352 25.0227H105.53V20.4691H108.352C109.833 20.4691 110.676 21.6965 110.676 22.7459C110.676 23.7953 109.833 25.0227 108.352 25.0227ZM120.603 23.1163C119.169 23.1163 117.68 23.7481 117.067 25.1497L118.828 25.8832C119.205 25.1497 119.903 24.9101 120.64 24.9101C121.664 24.9101 122.706 25.5238 122.724 26.6204V26.7584C122.364 26.555 121.595 26.2464 120.658 26.2464C118.762 26.2464 116.83 27.2885 116.83 29.2385C116.83 31.0141 118.385 32.1616 120.128 32.1616C121.46 32.1616 122.194 31.5625 122.659 30.8616H122.728V31.8856H124.641V26.7947C124.641 24.438 122.88 23.1199 120.607 23.1199L120.603 23.1163ZM120.364 30.3968C119.714 30.3968 118.81 30.0737 118.81 29.2675C118.81 28.2435 119.939 27.8477 120.912 27.8477C121.783 27.8477 122.194 28.0366 122.724 28.2907C122.571 29.5217 121.511 30.3932 120.367 30.3932L120.364 30.3968ZM131.61 23.4068L129.336 29.1659H129.267L126.911 23.4068H124.776L128.312 31.4572L126.297 35.9344H128.363L133.814 23.4068H131.61ZM113.751 31.9038H115.734V18.6208H113.751V31.9038Z" fill="white"/>
<path d="M11.2131 8.04674C10.9045 8.37355 10.7229 8.88192 10.7229 9.53917V33.0186C10.7229 33.6758 10.9045 34.1842 11.2131 34.511L11.293 34.5873L24.4453 21.435V21.1264L11.293 7.97049L11.2131 8.04674Z" fill="#5BC8F3"/>
<path d="M28.8281 25.8215L24.4453 21.435V21.1264L28.8317 16.7399L28.9298 16.7943L34.1261 19.7465C35.6112 20.5889 35.6112 21.9688 34.1261 22.8112L28.9298 25.7634L28.8281 25.8215Z" fill="url(#paint0_linear_3_318)"/>
<path d="M28.9298 25.7634L24.4453 21.2789L11.2131 34.511C11.7033 35.0303 12.5095 35.092 13.4209 34.5764L28.9298 25.7634Z" fill="url(#paint1_linear_3_318)"/>
<path d="M28.9298 16.7944L13.4209 7.98141C12.5131 7.46578 11.7033 7.52751 11.2131 8.04677L24.4453 21.2789L28.9298 16.7944Z" fill="url(#paint2_linear_3_318)"/>
<path d="M48.8398 8.79841C48.4403 8.44618 47.9138 8.21741 47.3328 8.21741C46.0256 8.21741 45.0197 9.29588 45.0197 10.6213C45.0197 11.9467 46.0256 13.0179 47.3328 13.0179C48.4585 13.0179 49.2755 12.3643 49.33 11.3294H47.5507V10.5959H50.2886C50.2886 12.7927 49.1194 13.8276 47.3328 13.8276C45.5462 13.8276 44.1736 12.3933 44.1736 10.6249C44.1736 8.85651 45.5535 7.41129 47.3328 7.41129C48.1571 7.41129 48.9015 7.73083 49.4462 8.23557L48.8398 8.79841Z" fill="white"/>
<path d="M55.1471 7.48395V8.27192H52.2894V10.2691H54.784V11.0571H52.2894V12.9453H55.2379V13.7333H51.4469V7.48395H55.1471Z" fill="white"/>
<path d="M60.6157 7.48395V8.28281H58.7202V13.7369H57.8669V8.28281H55.9714V7.48395H60.6157Z" fill="white"/>
<path d="M64.6645 7.48395V13.7333H63.8221V7.48395H64.6645Z" fill="white"/>
<path d="M70.4164 7.48395V8.28281H68.5209V13.7369H67.6676V8.28281H65.7721V7.48395H70.4164Z" fill="white"/>
<path d="M76.3679 7.41129C78.1545 7.41129 79.5416 8.84561 79.5416 10.6249C79.5416 12.4042 78.1545 13.8276 76.3679 13.8276C74.5814 13.8276 73.2088 12.3933 73.2088 10.6249C73.2088 8.85651 74.5886 7.41129 76.3679 7.41129ZM76.3679 13.007C77.6824 13.007 78.6919 11.9467 78.6919 10.6213C78.6919 9.29588 77.6861 8.22468 76.3679 8.22468C75.0498 8.22468 74.0548 9.29588 74.0548 10.6213C74.0548 11.9467 75.0607 13.007 76.3679 13.007Z" fill="white"/>
<path d="M84.5345 13.7333L81.6877 9.02358V13.7333H80.8452V7.48395H81.6804L84.5018 12.1573V7.48395H85.3443V13.7333H84.5382H84.5345Z" fill="white"/>
<defs>
<linearGradient id="paint0_linear_3_318" x1="33.1602" y1="21.2789" x2="7.46935" y2="21.2789" gradientUnits="userSpaceOnUse">
<stop stop-color="#FFDF00"/>
<stop offset="0.41" stop-color="#FBBC0E"/>
<stop offset="0.78" stop-color="#F8A318"/>
<stop offset="1" stop-color="#F89B1C"/>
</linearGradient>
<linearGradient id="paint1_linear_3_318" x1="26.4933" y1="23.7154" x2="2.3312" y2="47.8775" gradientUnits="userSpaceOnUse">
<stop stop-color="#EE4447"/>
<stop offset="1" stop-color="#C5166C"/>
</linearGradient>
<linearGradient id="paint2_linear_3_318" x1="2.22226" y1="-5.42865" x2="21.9506" y2="14.2997" gradientUnits="userSpaceOnUse">
<stop stop-color="#269E6F"/>
<stop offset="0.05" stop-color="#2BA06E"/>
<stop offset="0.47" stop-color="#52B26A"/>
<stop offset="0.8" stop-color="#6BBC68"/>
<stop offset="1" stop-color="#74C168"/>
</linearGradient>
</defs>
</svg>
