<svg width="226" height="59" viewBox="0 0 226 59" fill="none" xmlns="http://www.w3.org/2000/svg">
<path d="M114.966 27.1587H113.22C113.105 27.1587 113 27.202 112.914 27.2885C112.823 27.3751 112.78 27.4797 112.78 27.5951V29.3443C112.78 29.4597 112.823 29.5607 112.914 29.6508C113 29.7374 113.101 29.7807 113.22 29.7807H114.966C115.081 29.7807 115.186 29.7374 115.272 29.6508C115.359 29.5643 115.402 29.4633 115.402 29.3443V27.5951C115.402 27.4797 115.359 27.3787 115.272 27.2885C115.186 27.202 115.085 27.1587 114.966 27.1587Z" fill="white"/>
<path d="M114.594 31.0935H110.508V33.279H112.78V42.4542H115.402V31.9013C115.402 31.6669 115.326 31.4757 115.171 31.3207C115.02 31.1692 114.825 31.0898 114.594 31.0898V31.0935Z" fill="white"/>
<path d="M123.989 39.9404C123.697 39.7204 123.553 39.4463 123.553 39.1108V33.279H126.348V31.0934H123.553V28.4714H120.953L120.945 31.0934H118.919V33.279H120.942L120.931 38.458C120.931 39.3164 121.093 40.0449 121.421 40.6436C121.75 41.2423 122.229 41.6931 122.864 41.9961C123.499 42.2991 124.26 42.4541 125.147 42.4541H126.568V40.2686H125.082C124.646 40.2686 124.281 40.1604 123.989 39.9404Z" fill="white"/>
<path d="M136.497 36.2582C135.819 35.9444 134.986 35.71 133.998 35.5477C133.46 35.4611 133.009 35.3601 132.645 35.2411C132.281 35.1257 132.003 34.985 131.816 34.8263C131.624 34.6677 131.531 34.4837 131.531 34.2818C131.531 33.8598 131.729 33.5316 132.129 33.2972C132.53 33.0663 133.11 32.9473 133.868 32.9473C134.481 32.9473 135.09 33.0195 135.704 33.1637C136.317 33.3116 136.876 33.5208 137.388 33.7985L138.196 31.6994C137.687 31.4253 137.067 31.2017 136.338 31.0322C135.61 30.8663 134.831 30.7726 134.001 30.7581C132.4 30.7293 131.174 31.0286 130.323 31.6526C129.471 32.2801 129.042 33.189 129.042 34.3827C129.042 34.9778 129.226 35.5008 129.59 35.9444C129.955 36.388 130.481 36.7559 131.174 37.048C131.866 37.3401 132.728 37.5637 133.763 37.726C134.272 37.8126 134.694 37.9208 135.029 38.0434C135.364 38.166 135.621 38.3211 135.794 38.5015C135.967 38.6854 136.057 38.8982 136.057 39.147C136.057 39.5834 135.866 39.9224 135.487 40.1641C135.108 40.4057 134.567 40.532 133.871 40.5464C133.215 40.5608 132.541 40.4742 131.852 40.2831C131.159 40.0956 130.496 39.8179 129.854 39.4536L128.804 41.5274C129.388 41.9061 130.081 42.2018 130.882 42.411C131.682 42.6202 132.541 42.7356 133.46 42.75C135.062 42.7789 136.299 42.4795 137.175 41.8556C138.048 41.2316 138.502 40.3192 138.527 39.1254C138.542 38.469 138.38 37.9064 138.037 37.4303C137.694 36.9578 137.186 36.5647 136.508 36.2509L136.497 36.2582Z" fill="white"/>
<path d="M152.597 31.7138C152.265 31.9554 151.98 32.2512 151.728 32.5974L151.645 32.583V31.0898H149.023V42.4506H151.645V35.1905C151.692 34.902 151.811 34.6279 152.016 34.3682C152.279 34.0328 152.622 33.7659 153.044 33.5712C153.466 33.3764 153.91 33.2754 154.375 33.2754H156.254V31.0898H154.53C153.816 31.0898 153.174 31.2954 152.597 31.7102V31.7138Z" fill="white"/>
<path d="M165.681 31.5515C165.05 31.245 164.286 31.0935 163.398 31.0935H158.919V33.2791H163.463C163.957 33.2791 164.336 33.3765 164.599 33.5748C164.859 33.7696 164.993 34.0581 164.993 34.4368V35.5512H161.977C160.712 35.5512 159.669 35.8686 158.854 36.5034C158.039 37.1345 157.632 38.0217 157.632 39.1578C157.632 39.8142 157.772 40.4129 158.057 40.9611C158.342 41.5057 158.778 41.9493 159.366 42.2811C159.958 42.6165 160.675 42.7824 161.519 42.7824C162.363 42.7824 163.117 42.5877 163.737 42.2018C164.239 41.888 164.639 41.4588 164.949 40.9214L164.993 40.9286V42.4542H167.615V35.0932C167.615 34.2348 167.452 33.5063 167.124 32.9076C166.796 32.3089 166.316 31.8581 165.681 31.5515ZM163.673 40.3011C163.229 40.4959 162.684 40.5968 162.046 40.5968C161.667 40.5968 161.35 40.5463 161.094 40.4454C160.841 40.3444 160.647 40.1821 160.517 39.9657C160.387 39.7457 160.322 39.4644 160.322 39.1145C160.336 38.5772 160.492 38.1552 160.791 37.8594C161.09 37.5601 161.509 37.4122 162.046 37.4122H164.996V38.0903C164.996 38.6276 164.888 39.0857 164.668 39.4572C164.448 39.8286 164.116 40.1136 163.673 40.3083V40.3011Z" fill="white"/>
<path d="M174.914 27.1587H173.169C173.053 27.1587 172.949 27.202 172.862 27.2885C172.772 27.3751 172.729 27.4797 172.729 27.5951V29.3443C172.729 29.4597 172.772 29.5607 172.862 29.6508C172.949 29.7374 173.05 29.7807 173.169 29.7807H174.914C175.03 29.7807 175.134 29.7374 175.221 29.6508C175.307 29.5643 175.351 29.4633 175.351 29.3443V27.5951C175.351 27.4797 175.307 27.3787 175.221 27.2885C175.134 27.202 175.033 27.1587 174.914 27.1587Z" fill="white"/>
<path d="M174.543 31.0935H170.456V33.279H172.729V42.4542H175.351V31.9013C175.351 31.6669 175.275 31.4757 175.12 31.3207C174.968 31.1692 174.774 31.0898 174.543 31.0898V31.0935Z" fill="white"/>
<path d="M188.14 31.3315C187.534 30.9528 186.794 30.7653 185.922 30.7653C184.991 30.7653 184.23 30.96 183.639 31.3423C183.101 31.6921 182.708 32.1213 182.441 32.6154L182.337 32.601V31.0935H179.715V42.4542H182.337V35.2879C182.337 34.7938 182.448 34.3718 182.665 34.022C182.885 33.6722 183.206 33.4089 183.628 33.2249C184.05 33.041 184.562 32.9508 185.157 32.9508C185.622 32.9508 186.022 33.0374 186.358 33.2141C186.693 33.3872 186.942 33.6469 187.112 33.9895C187.278 34.3322 187.364 34.7433 187.364 35.223V42.4542H189.986V35.6594C189.986 34.6099 189.827 33.7227 189.517 32.9941C189.204 32.2656 188.745 31.7138 188.14 31.3351V31.3315Z" fill="white"/>
<path d="M197.412 27.1587H195.667C195.551 27.1587 195.447 27.202 195.36 27.2885C195.27 27.3751 195.227 27.4797 195.227 27.5951V29.3443C195.227 29.4597 195.27 29.5607 195.36 29.6508C195.447 29.7374 195.547 29.7807 195.667 29.7807H197.412C197.527 29.7807 197.632 29.7374 197.719 29.6508C197.805 29.5643 197.848 29.4633 197.848 29.3443V27.5951C197.848 27.4797 197.805 27.3787 197.719 27.2885C197.632 27.202 197.531 27.1587 197.412 27.1587Z" fill="white"/>
<path d="M197.041 31.0935H192.954V33.279H195.226V42.4542H197.848V31.9013C197.848 31.6669 197.773 31.4757 197.618 31.3207C197.466 31.1692 197.271 31.0898 197.041 31.0898V31.0935Z" fill="white"/>
<path d="M210.645 31.3315C210.039 30.9528 209.299 30.7653 208.427 30.7653C207.496 30.7653 206.735 30.96 206.144 31.3423C205.606 31.6921 205.213 32.1213 204.946 32.6154L204.842 32.601V31.0935H202.22V42.4542H204.842V35.2879C204.842 34.7938 204.953 34.3718 205.17 34.022C205.39 33.6722 205.711 33.4089 206.133 33.2249C206.555 33.041 207.067 32.9508 207.662 32.9508C208.127 32.9508 208.528 33.0374 208.863 33.2141C209.198 33.3872 209.447 33.6469 209.617 33.9895C209.783 34.3322 209.869 34.7433 209.869 35.223V42.4542H212.491V35.6594C212.491 34.6099 212.333 33.7227 212.022 32.9941C211.709 32.2656 211.251 31.7138 210.645 31.3351V31.3315Z" fill="white"/>
<path d="M222.691 31.0935V32.5505L222.636 32.5577C222.406 32.0997 222.059 31.6958 221.587 31.3531C221.039 30.96 220.317 30.7653 219.412 30.7653C218.507 30.7653 217.775 30.96 217.118 31.3531C216.462 31.7462 215.953 32.3125 215.589 33.0482C215.225 33.784 215.041 34.6531 215.041 35.6594V38.0181C215.041 38.9053 215.254 39.7168 215.676 40.4417C216.098 41.1702 216.671 41.7437 217.393 42.1657C218.114 42.5876 218.896 42.8004 219.74 42.8004C220.426 42.8004 221.05 42.6273 221.619 42.2883C222.005 42.0575 222.326 41.7689 222.6 41.4335L222.691 41.4479V43.262C222.691 43.6552 222.525 43.9834 222.186 44.2466C221.85 44.5099 221.435 44.6398 220.941 44.6398H216.289V46.8253H220.898C221.843 46.8253 222.647 46.6631 223.304 46.3349C223.96 46.0067 224.458 45.5306 224.8 44.903C225.143 44.2755 225.313 43.5109 225.313 42.6093V31.0971H222.691V31.0935ZM222.352 39.5581C222.124 39.8863 221.818 40.146 221.425 40.3335C221.032 40.5247 220.595 40.6184 220.115 40.6184C219.636 40.6184 219.232 40.5247 218.86 40.3335C218.489 40.146 218.197 39.8863 217.988 39.5581C217.778 39.2299 217.67 38.862 217.67 38.4545V35.2194C217.67 34.783 217.786 34.3935 218.009 34.0509C218.236 33.7082 218.539 33.4377 218.925 33.243C219.311 33.0482 219.751 32.9472 220.245 32.9472C220.739 32.9472 221.197 33.0518 221.569 33.2646C221.94 33.4774 222.222 33.7587 222.409 34.1158C222.597 34.4728 222.694 34.8623 222.694 35.2843V38.4509C222.694 38.8584 222.579 39.2263 222.355 39.5545L222.352 39.5581Z" fill="white"/>
<path d="M13.58 36.4867L48.1133 53.0303L51.2048 51.8306L16.6716 35.2871L13.58 36.4867Z" fill="white"/>
<path d="M7.86633 38.8623L42.3996 55.4106L45.4864 54.211L10.9579 37.6627L7.86633 38.8623Z" fill="white"/>
<path d="M3.84546 40.8443L38.3787 57.3926L40.1758 56.6576L5.64253 40.1094L3.84546 40.8443Z" fill="white"/>
<path d="M0 42.4517L34.5332 59L35.3867 58.6491L0.853492 42.1056L0 42.4517Z" fill="white"/>
<path d="M43.6656 3.73166C44.4527 2.94455 44.3531 1.3324 44.5381 0C43.3053 0.189665 41.5983 0.0900908 40.8112 0.8772C40.024 1.66431 40.024 2.94455 40.8112 3.73166C41.5983 4.51877 42.8785 4.51877 43.6656 3.73166Z" fill="white"/>
<path d="M57.4969 3.82174C58.284 3.03464 58.1844 1.42248 58.3694 0.0900879C57.1365 0.279753 55.4296 0.180179 54.6425 0.967288C53.8553 1.7544 53.8553 3.03464 54.6425 3.82174C55.4296 4.60885 56.7098 4.60885 57.4969 3.82174Z" fill="white"/>
<path d="M50.5315 11.3182C51.3186 10.5311 51.219 8.91894 51.4039 7.58655C50.1711 7.77621 48.4641 7.67664 47.677 8.46375C46.8899 9.25086 46.8899 10.5311 47.677 11.3182C48.4641 12.1053 49.7443 12.1053 50.5315 11.3182Z" fill="white"/>
<path d="M64.3628 11.4083C65.1499 10.6212 65.0504 9.00903 65.2353 7.67664C64.0025 7.8663 62.2955 7.76673 61.5084 8.55384C60.7213 9.34095 60.7213 10.6212 61.5084 11.4083C62.2955 12.1954 63.5757 12.1954 64.3628 11.4083Z" fill="white"/>
<path d="M57.3974 18.9049C58.1845 18.1178 58.0849 16.5056 58.2698 15.1732C57.037 15.3629 55.33 15.2633 54.5429 16.0504C53.7558 16.8375 53.7558 18.1178 54.5429 18.9049C55.33 19.692 56.6103 19.692 57.3974 18.9049Z" fill="white"/>
<path d="M33.7461 26.3112C34.5332 27.0984 35.8134 27.0984 36.6006 26.3112C37.3877 25.5241 37.2881 23.912 37.473 22.5796C36.2402 22.7693 34.5332 22.6697 33.7461 23.4568C32.959 24.2439 32.959 25.5241 33.7461 26.3112Z" fill="white"/>
<path d="M43.566 18.81C44.3531 18.0229 44.2535 16.4108 44.4385 15.0784C43.2056 15.268 41.4987 15.1685 40.7115 15.9556C39.9244 16.7427 39.9244 18.0229 40.7115 18.81C41.4987 19.5971 42.7789 19.5971 43.566 18.81Z" fill="white"/>
<path d="M47.5775 26.4013C48.3646 27.1884 49.6448 27.1884 50.4319 26.4013C51.219 25.6142 51.1194 24.0021 51.3044 22.6697C50.0715 22.8593 48.3646 22.7598 47.5775 23.5469C46.7903 24.334 46.7903 25.6142 47.5775 26.4013Z" fill="white"/>
<path d="M64.2632 26.4914C65.0503 25.7043 64.9507 24.0922 65.1357 22.7598C63.9028 22.9494 62.1959 22.8499 61.4088 23.637C60.6216 24.4241 60.6216 25.7043 61.4088 26.4914C62.1959 27.2785 63.4761 27.2785 64.2632 26.4914Z" fill="white"/>
<path d="M72.9783 42.2715L73.8318 41.9206L58.3836 34.5189L59.6733 30.1898C60.5126 27.5061 59.2229 24.59 56.6766 23.4046L52.6462 21.5269L52.5087 22.5369L56.2641 24.2865C58.3694 25.268 59.4362 27.6815 58.744 29.9053L53.5566 47.345C53.4144 47.8192 53.0777 48.2033 52.6273 48.3977C52.1768 48.5968 51.6647 48.5873 51.2238 48.3692L21.8826 34.0637C21.1145 33.6892 20.7209 32.8214 20.9532 31.9964L25.4436 15.8559C25.8229 14.5472 26.7522 13.4709 27.9898 12.9066C28.6015 12.6269 29.2606 12.4894 29.9197 12.4894C30.5787 12.4894 31.2615 12.6364 31.8874 12.9256L39.1468 16.3064C39.2559 16.0029 39.4076 15.7137 39.6115 15.4481L32.2952 12.0389C30.8016 11.3419 29.0851 11.3372 27.5868 12.0152C26.0884 12.698 24.9647 13.9972 24.5047 15.5856L20.0144 31.7309C19.8532 32.3141 19.9006 32.9068 20.0998 33.4379L17.5772 34.5284L52.1104 51.0767L55.7899 49.4882L53.9549 48.6063C54.2015 48.3218 54.3912 47.9899 54.5002 47.62L54.5192 47.5631L56.9469 48.7248L60.0384 47.5252L55.2162 45.216L55.6999 43.5849L62.248 46.7239L65.3396 45.5243L56.4016 41.2426L57.0512 39.0614L68.1561 44.3815L69.9532 43.6466L57.4685 37.6626L58.2082 35.1828L73.002 42.2715H72.9783Z" fill="white"/>
<path d="M51.1242 21.508L52.2385 21.3373L45.2398 18.0751C45.1545 18.3928 45.0407 18.6962 44.8842 18.9807L50.4651 21.5791C50.6974 21.5602 50.9203 21.5365 51.1289 21.5033L51.1242 21.508Z" fill="white"/>
</svg>
