<svg width="220" height="36" viewBox="0 0 220 36" fill="none" xmlns="http://www.w3.org/2000/svg">
<path d="M220 10.3535H214.32V18.6311C214.32 20.1977 214.32 21.2939 214.782 22.0233C215.21 22.7871 216.025 23.2619 216.841 23.3352C217.799 23.4431 218.973 23.4086 220 23.2273V26.8008C218.58 27.2021 216.306 27.2755 214.959 26.9475C213.22 26.4728 211.908 25.6355 211.161 24.1768C210.415 22.6792 210.346 20.9314 210.346 18.89V10.3578H206.228V7.11234H210.346V1.64429H214.32V7.11234H220V10.3578V10.3535Z" fill="black"/>
<path d="M196.876 10.4268C195.279 10.388 193.786 11.0483 192.867 12.3214C192.332 13.012 192.017 13.8881 191.835 14.7987H201.882C201.706 13.8881 201.386 13.012 200.851 12.3214C199.927 11.044 198.473 10.388 196.876 10.4268ZM191.693 18.0873C191.835 19.3648 192.155 20.6379 192.867 21.5874C193.79 22.826 195.279 23.482 196.876 23.482C198.473 23.482 199.932 22.826 200.851 21.5874C201.062 21.2939 201.17 21.0393 201.313 20.7846L205.288 22.5368C204.968 23.1195 204.614 23.6676 204.187 24.1768C202.374 26.3304 199.643 27.4568 196.872 27.3489C194.067 27.241 191.404 26.257 189.665 24.1034C188.033 22.0232 187.356 19.5115 187.395 16.9566C187.468 14.2937 188.068 11.8165 189.665 9.80968C191.404 7.65612 194.067 6.56424 196.872 6.56424C199.677 6.56424 202.305 7.6216 204.045 9.80968C205.641 11.8122 206.319 14.3671 206.319 16.9566C206.319 17.3234 206.285 17.7205 206.246 18.0873H191.689H191.693Z" fill="black"/>
<path d="M185.357 0H181.348V26.7965H185.357V0Z" fill="black"/>
<path d="M178.245 0H174.236V26.7965H178.245V0Z" fill="black"/>
<path d="M167.52 16.9911C166.808 17.099 165.604 17.3191 163.507 17.7205C160.986 18.1564 158.324 18.6311 158.255 20.7458C158.22 22.2045 159.463 23.5165 161.237 23.551C163.472 23.5899 166.243 22.3858 167.059 19.9042C167.521 18.7735 167.52 17.7895 167.52 16.9868M158.608 12.5416L154.953 10.7549C155.095 10.5736 155.238 10.2801 155.415 10.0643C157.12 7.65614 159.709 6.59879 162.73 6.59879C166.243 6.59879 169.122 7.8374 170.611 10.6815C171.249 11.9201 171.5 13.2709 171.5 14.4362V26.7965H167.987V23.1885C167.49 24.4271 166.247 25.5579 165.181 26.1405C163.761 26.9777 162.091 27.3446 160.529 27.3057C158.613 27.2669 156.658 26.2829 155.631 24.8976C154.742 23.5856 154.28 22.5627 154.28 20.9961C154.28 18.9159 155.454 16.948 157.262 15.8561C159.359 14.6865 161.133 14.5786 163.973 14.1427L167.417 13.6335C167.24 12.684 166.705 11.8467 165.928 11.2986C165.039 10.6426 163.869 10.388 162.661 10.4225C161.207 10.4225 159.89 10.8584 159.04 11.9546C158.898 12.1359 158.721 12.356 158.613 12.5373" fill="black"/>
<path d="M150.793 7.11236H154.737L148.876 26.8008H144.936L141.281 13.7111L137.41 26.8008H133.72L127.859 7.07352L131.838 7.11236L135.705 20.1632L139.611 7.11236H143.02L146.926 20.1632L150.793 7.11236Z" fill="black"/>
<path d="M124.79 8.53223C127.203 10.6815 127.595 13.5255 127.561 17.0256V26.7965H123.513V17.0256C123.513 14.803 123.228 12.835 121.881 11.6309C121.1 10.9016 119.965 10.539 118.614 10.5736C117.583 10.6124 116.698 10.9404 115.952 11.523C115.17 12.179 114.64 13.1976 114.424 14.3671C114.212 15.3856 114.178 16.8098 114.178 18.1952V26.8008H110.164V7.11235H113.716V8.79117L113.824 8.68328C115.317 7.33245 117.302 6.67646 119.115 6.60309C121.1 6.49519 123.267 7.22455 124.795 8.53654" fill="black"/>
<path d="M98.7188 10.4268C97.122 10.388 95.6288 11.0483 94.7095 12.3214C94.1744 13.012 93.855 13.8881 93.678 14.7987H103.725C103.548 13.8881 103.229 13.012 102.694 12.3214C101.77 11.044 100.316 10.388 98.7188 10.4268ZM93.5356 18.0873C93.678 19.3648 93.9974 20.6379 94.7095 21.5874C95.6331 22.826 97.122 23.482 98.7188 23.482C100.316 23.482 101.774 22.826 102.694 21.5874C102.905 21.2939 103.013 21.0393 103.155 20.7846L107.13 22.5368C106.811 23.1195 106.457 23.6676 106.03 24.1768C104.217 26.3304 101.485 27.4568 98.7145 27.3489C95.9093 27.241 93.2465 26.257 91.5072 24.1034C89.8759 22.0232 89.1983 19.5115 89.2371 16.9566C89.3105 14.2937 89.9104 11.8165 91.5072 9.80968C93.2465 7.65612 95.9093 6.56424 98.7145 6.56424C101.52 6.56424 104.144 7.6216 105.887 9.80968C107.484 11.8122 108.162 14.3671 108.162 16.9566C108.162 17.3234 108.127 17.7205 108.088 18.0873H93.5313H93.5356Z" fill="black"/>
<path d="M82.9016 21.6607C83.7173 20.4912 84.0367 18.7821 84.0367 16.9566C84.0367 15.131 83.6828 13.3831 82.8628 12.2179C81.9392 10.8325 80.4848 10.2499 78.7455 10.2499C77.2178 10.2499 75.8367 10.798 74.9477 11.9287C73.9551 13.1673 73.5278 15.0274 73.5278 16.9609C73.5278 18.8943 73.9551 20.7544 74.9477 21.9542C75.9058 23.0849 77.2911 23.6676 78.888 23.6676C80.4848 23.6676 81.978 23.0461 82.8973 21.665M86.0953 9.69747C87.5842 11.6655 88.2618 14.2894 88.2618 16.9522C88.2618 19.6151 87.6921 22.1268 86.0953 24.1725C84.4984 26.2138 82.0471 27.3446 79.4576 27.3446C77.3645 27.3446 75.4483 26.7231 73.9896 25.5233V35.182H69.9803V7.11234H73.5321V8.78685C75.0556 7.40149 77.153 6.56424 79.3541 6.56424C81.9824 6.56424 84.5028 7.65612 86.0996 9.69747" fill="black"/>
<path d="M62.4795 21.5874C63.403 20.3488 63.7224 18.6354 63.7224 16.9566C63.7224 15.2777 63.403 13.5299 62.4795 12.2913C61.5559 11.0526 60.067 10.4312 58.4701 10.4312C56.8733 10.4312 55.3455 11.0526 54.4608 12.2913C53.5372 13.5299 53.2179 15.2821 53.2179 16.9566C53.2179 18.6311 53.5372 20.3488 54.4608 21.5874C55.3499 22.826 56.8388 23.482 58.4701 23.482C60.1015 23.482 61.5602 22.826 62.4795 21.5874ZM58.4658 27.3446C55.6606 27.3446 52.9978 26.2527 51.2585 24.0991C49.6229 22.0189 48.9841 19.5762 48.9841 16.9523C48.9841 14.3283 49.7308 11.7388 51.2585 9.80538C52.9633 7.69066 55.6606 6.55994 58.4658 6.55994C61.2711 6.55994 63.9339 7.6173 65.6386 9.80538C67.3088 11.8856 67.9475 14.324 67.9475 16.9523C67.9475 19.5806 67.2743 21.9844 65.6386 24.0991C63.8994 26.2872 61.3056 27.3446 58.4658 27.3446Z" fill="black"/>
<g opacity="0.5">
<path fill-rule="evenodd" clip-rule="evenodd" d="M10.7984 25.4931L15.0278 23.0504L13.7805 20.8882C13.0943 20.8408 12.4384 20.4782 12.0413 19.8524L12.0025 19.792C11.5666 19.1101 11.5493 18.2772 11.8816 17.5996L11.1307 16.3006L6.90125 18.7433L7.75576 20.2279C8.39881 20.2668 9.01165 20.6034 9.3828 21.186C9.78848 21.8247 9.80143 22.5973 9.49069 23.2274L10.7984 25.4888V25.4931ZM21.0785 8.17834L16.849 10.6211L18.0963 12.7832C18.7825 12.8307 19.4385 13.1932 19.8355 13.819L19.8744 13.8794C20.3103 14.5613 20.3275 15.3943 19.9952 16.0718L20.7462 17.3709L24.9756 14.9282L24.1211 13.4436C23.478 13.4047 22.8652 13.0681 22.494 12.4855C22.0884 11.8467 22.0754 11.0742 22.3861 10.4441L21.0828 8.18266L21.0785 8.17834Z" fill="black"/>
</g>
<path fill-rule="evenodd" clip-rule="evenodd" d="M10.1165 19.7618C11.9162 18.7217 12.5333 16.4214 11.4932 14.6217L7.02211 6.87928C5.98202 5.07962 3.68172 4.46246 1.88206 5.50256C0.0823902 6.54265 -0.534761 8.84295 0.505334 10.6426L4.97645 18.3851C6.01655 20.1847 8.31684 20.8019 10.1165 19.7618ZM17.6691 25.2557C17.6691 27.6251 15.7486 29.5456 13.3792 29.5456C11.0099 29.5456 9.08936 27.6251 9.08936 25.2557V25.1392C9.08936 22.7699 11.0099 20.8494 13.3792 20.8494C15.7486 20.8494 17.6691 22.7699 17.6691 25.1392V25.2557ZM21.7604 13.9096C19.9607 14.9497 19.3436 17.25 20.3837 19.0497L24.8548 26.7921C25.8949 28.5918 28.1952 29.209 29.9992 28.1689C31.7988 27.1288 32.416 24.8285 31.3759 23.0245L26.9048 15.282C25.8647 13.4824 23.5644 12.8652 21.7647 13.9053M31.8031 13.2925C31.8031 10.9231 33.7236 9.00263 36.093 9.00263C38.4623 9.00263 40.3829 10.9231 40.3829 13.2925V13.409C40.3829 15.7784 38.4623 17.6989 36.093 17.6989C33.7236 17.6989 31.8031 15.7784 31.8031 13.409V13.2925ZM14.2122 8.41137C14.2122 6.04203 16.1327 4.12152 18.502 4.12152C20.8713 4.12152 22.7919 6.04203 22.7919 8.41137V8.5279C22.7919 10.8972 20.8713 12.8178 18.502 12.8178C16.1327 12.8178 14.2122 10.8972 14.2122 8.5279V8.41137Z" fill="black"/>
</svg>
