<svg width="24" height="25" viewBox="0 0 24 25" fill="none" xmlns="http://www.w3.org/2000/svg">
<path d="M12 24.0144C5.38922 24.0144 0 18.6252 0 12.0144C0 5.40359 5.37485 0 12 0C18.6252 0 24 5.38922 24 12C24 18.6108 18.6108 24 12 24V24.0144ZM12 1.43713C6.17964 1.43713 1.43713 6.17964 1.43713 12C1.43713 17.8204 6.17964 22.5629 12 22.5629C17.8204 22.5629 22.5629 17.8204 22.5629 12C22.5629 6.17964 17.8204 1.43713 12 1.43713Z" fill="white"/>
<path d="M15.7078 9.09715C15.7078 9.672 15.6072 10.1606 15.4204 10.5486C15.2336 10.9367 14.9892 11.2528 14.7162 11.5259C14.4288 11.7989 14.1557 12.0433 13.8827 12.2732C13.5809 12.5175 13.3222 12.7762 13.0922 13.0492C12.8623 13.3079 12.7473 13.6241 12.7473 14.0121H10.4479C10.4479 13.5522 10.5054 13.1642 10.6204 12.848C10.7354 12.5175 10.8934 12.2445 11.0803 12.0001C11.2671 11.7558 11.4683 11.5403 11.6982 11.3678C11.9138 11.181 12.1294 11.0085 12.3593 10.8504C12.5605 10.7067 12.733 10.5486 12.891 10.4049C13.0491 10.2468 13.1785 10.0888 13.2791 9.91631C13.3797 9.74385 13.4228 9.54265 13.4228 9.32709C13.4228 8.92469 13.2791 8.62289 13.006 8.39295C12.733 8.17738 12.3162 8.06241 11.7845 8.06241C11.4827 8.06241 11.1665 8.10553 10.8216 8.20613C10.4767 8.29235 10.1461 8.40732 9.82996 8.53667C9.51379 8.66601 9.212 8.79535 8.95331 8.91032L8.29224 7.11391C8.9102 6.75463 9.52816 6.48158 10.1318 6.29475C10.7353 6.10792 11.3677 6.00732 12.0288 6.00732C12.8048 6.00732 13.4659 6.15104 14.012 6.43846C14.5581 6.72589 14.9892 7.09954 15.2767 7.57379C15.5641 8.04804 15.7078 8.56541 15.7078 9.12589V9.09715ZM10.0886 16.5415C10.0886 16.1247 10.2324 15.7654 10.5054 15.478C10.7785 15.1906 11.1377 15.0325 11.5689 15.0325C12 15.0325 12.3593 15.1762 12.6467 15.478C12.9342 15.7654 13.0635 16.1247 13.0635 16.5415C13.0635 16.8145 12.9916 17.0732 12.8623 17.3031C12.733 17.5331 12.5605 17.7199 12.3306 17.8492C12.115 17.993 11.8563 18.0504 11.5545 18.0504C11.2527 18.0504 11.0084 17.9786 10.7928 17.8492C10.5773 17.7199 10.4048 17.5331 10.2611 17.3031C10.1318 17.0732 10.0599 16.8289 10.0599 16.5558L10.0886 16.5415Z" fill="white"/>
</svg>
